<svg xmlns="http://www.w3.org/2000/svg" xmlns:xlink="http://www.w3.org/1999/xlink" width="275" zoomAndPan="magnify" viewBox="0 0 206.25 66.75" height="89" preserveAspectRatio="xMidYMid meet" version="1.0"><defs><g/><clipPath id="02d2922350"><path d="M 11.707031 0 L 205.113281 0 L 205.113281 66.347656 L 11.707031 66.347656 Z M 11.707031 0 " clip-rule="nonzero"/></clipPath><clipPath id="c9b9946a6a"><path d="M 2.429688 15.898438 L 191.289062 15.898438 L 191.289062 51.933594 L 2.429688 51.933594 Z M 2.429688 15.898438 " clip-rule="nonzero"/></clipPath><clipPath id="eee6b99256"><path d="M 0.429688 0.898438 L 189.289062 0.898438 L 189.289062 36.933594 L 0.429688 36.933594 Z M 0.429688 0.898438 " clip-rule="nonzero"/></clipPath><clipPath id="af4ead9d27"><rect x="0" width="190" y="0" height="37"/></clipPath></defs><g clip-path="url(#02d2922350)"><path stroke-linecap="butt" transform="matrix(0.747201, 0, 0, 0.747201, 11.708697, 0.00000199254)" fill="none" stroke-linejoin="miter" d="M -0.00222898 -0.00000266667 L 258.838606 -0.00000266667 L 258.838606 88.794867 L -0.00222898 88.794867 Z M -0.00222898 -0.00000266667 " stroke="#ffffff" stroke-width="10" stroke-opacity="1" stroke-miterlimit="4"/></g><g clip-path="url(#c9b9946a6a)"><g transform="matrix(1, 0, 0, 1, 2, 15)"><g clip-path="url(#af4ead9d27)"><g clip-path="url(#eee6b99256)"><path fill="#d1512d" d="M 0.429688 0.898438 L 189.34375 0.898438 L 189.34375 36.933594 L 0.429688 36.933594 Z M 0.429688 0.898438 " fill-opacity="1" fill-rule="nonzero"/></g></g></g></g><g fill="#ffffff" fill-opacity="1"><g transform="translate(8.862797, 44.376133)"><g><path d="M 9.5625 0.359375 C 7.875 0.359375 6.238281 0.128906 4.65625 -0.328125 C 3.082031 -0.785156 1.816406 -1.378906 0.859375 -2.109375 L 2.53125 -5.84375 C 3.445312 -5.164062 4.535156 -4.625 5.796875 -4.21875 C 7.066406 -3.8125 8.332031 -3.609375 9.59375 -3.609375 C 11 -3.609375 12.035156 -3.816406 12.703125 -4.234375 C 13.378906 -4.648438 13.71875 -5.207031 13.71875 -5.90625 C 13.71875 -6.40625 13.519531 -6.820312 13.125 -7.15625 C 12.726562 -7.5 12.21875 -7.769531 11.59375 -7.96875 C 10.976562 -8.175781 10.140625 -8.40625 9.078125 -8.65625 C 7.441406 -9.039062 6.101562 -9.425781 5.0625 -9.8125 C 4.03125 -10.195312 3.140625 -10.816406 2.390625 -11.671875 C 1.648438 -12.523438 1.28125 -13.664062 1.28125 -15.09375 C 1.28125 -16.34375 1.613281 -17.46875 2.28125 -18.46875 C 2.957031 -19.476562 3.972656 -20.28125 5.328125 -20.875 C 6.679688 -21.46875 8.335938 -21.765625 10.296875 -21.765625 C 11.660156 -21.765625 12.992188 -21.597656 14.296875 -21.265625 C 15.609375 -20.941406 16.75 -20.472656 17.71875 -19.859375 L 16.203125 -16.109375 C 14.222656 -17.222656 12.242188 -17.78125 10.265625 -17.78125 C 8.878906 -17.78125 7.851562 -17.554688 7.1875 -17.109375 C 6.53125 -16.660156 6.203125 -16.070312 6.203125 -15.34375 C 6.203125 -14.601562 6.582031 -14.054688 7.34375 -13.703125 C 8.113281 -13.347656 9.28125 -13 10.84375 -12.65625 C 12.476562 -12.269531 13.8125 -11.878906 14.84375 -11.484375 C 15.882812 -11.097656 16.773438 -10.488281 17.515625 -9.65625 C 18.265625 -8.820312 18.640625 -7.691406 18.640625 -6.265625 C 18.640625 -5.046875 18.296875 -3.929688 17.609375 -2.921875 C 16.929688 -1.910156 15.910156 -1.109375 14.546875 -0.515625 C 13.179688 0.0664062 11.519531 0.359375 9.5625 0.359375 Z M 9.5625 0.359375 "/></g></g></g><g fill="#ffffff" fill-opacity="1"><g transform="translate(31.97127, 44.376133)"><g><path d="M 23.109375 -21.390625 L 13.84375 0 L 8.953125 0 L -0.28125 -21.390625 L 5.078125 -21.390625 L 11.578125 -6.109375 L 18.1875 -21.390625 Z M 23.109375 -21.390625 "/></g></g></g><g fill="#ffffff" fill-opacity="1"><g transform="translate(58.380787, 44.376133)"><g><path d="M 19.09375 -3.96875 L 19.09375 0 L 2.53125 0 L 2.53125 -21.390625 L 18.703125 -21.390625 L 18.703125 -17.421875 L 7.453125 -17.421875 L 7.453125 -12.78125 L 17.390625 -12.78125 L 17.390625 -8.921875 L 7.453125 -8.921875 L 7.453125 -3.96875 Z M 19.09375 -3.96875 "/></g></g></g><g fill="#ffffff" fill-opacity="1"><g transform="translate(82.497918, 44.376133)"><g><path d="M 6.96875 -17.359375 L 0.125 -17.359375 L 0.125 -21.390625 L 18.765625 -21.390625 L 18.765625 -17.359375 L 11.921875 -17.359375 L 11.921875 0 L 6.96875 0 Z M 6.96875 -17.359375 "/></g></g></g><g fill="#ffffff" fill-opacity="1"><g transform="translate(104.995095, 44.376133)"><g><path d="M 22.15625 -21.390625 L 22.15625 0 L 17.203125 0 L 17.203125 -8.765625 L 7.484375 -8.765625 L 7.484375 0 L 2.53125 0 L 2.53125 -21.390625 L 7.484375 -21.390625 L 7.484375 -12.953125 L 17.203125 -12.953125 L 17.203125 -21.390625 Z M 22.15625 -21.390625 "/></g></g></g><g fill="#ffffff" fill-opacity="1"><g transform="translate(133.299649, 44.376133)"><g><path d="M 22.15625 -21.390625 L 22.15625 0 L 18.09375 0 L 7.421875 -12.984375 L 7.421875 0 L 2.53125 0 L 2.53125 -21.390625 L 6.625 -21.390625 L 17.265625 -8.40625 L 17.265625 -21.390625 Z M 22.15625 -21.390625 "/></g></g></g><g fill="#ffffff" fill-opacity="1"><g transform="translate(161.604203, 44.376133)"><g><path d="M 16.625 -4.578125 L 6.6875 -4.578125 L 4.796875 0 L -0.28125 0 L 9.265625 -21.390625 L 14.15625 -21.390625 L 23.71875 0 L 18.515625 0 Z M 15.0625 -8.34375 L 11.671875 -16.53125 L 8.28125 -8.34375 Z M 15.0625 -8.34375 "/></g></g></g></svg>