<svg xmlns="http://www.w3.org/2000/svg" xmlns:xlink="http://www.w3.org/1999/xlink" width="207" zoomAndPan="magnify" viewBox="0 0 155.25 120.750001" height="161" preserveAspectRatio="xMidYMid meet" version="1.0"><defs><g/><clipPath id="7667afab4e"><path d="M 11.671875 0.167969 L 154.210938 0.167969 L 154.210938 119.589844 L 11.671875 119.589844 Z M 11.671875 0.167969 " clip-rule="nonzero"/></clipPath><clipPath id="6202d09576"><path d="M 2.417969 28.605469 L 27.785156 28.605469 L 27.785156 92.964844 L 2.417969 92.964844 Z M 2.417969 28.605469 " clip-rule="nonzero"/></clipPath><clipPath id="0f0721b194"><path d="M 0.417969 0.605469 L 25.785156 0.605469 L 25.785156 64.964844 L 0.417969 64.964844 Z M 0.417969 0.605469 " clip-rule="nonzero"/></clipPath><clipPath id="4822c41a97"><rect x="0" width="26" y="0" height="65"/></clipPath></defs><g clip-path="url(#7667afab4e)"><path stroke-linecap="butt" transform="matrix(0.746394, 0, 0, 0.746394, 11.671619, 0.166062)" fill="none" stroke-linejoin="miter" d="M 0.000342931 0.00255431 L 190.97056 0.00255431 L 190.97056 160.372529 L 0.000342931 160.372529 Z M 0.000342931 0.00255431 " stroke="#ffffff" stroke-width="10" stroke-opacity="1" stroke-miterlimit="4"/></g><g clip-path="url(#6202d09576)"><g transform="matrix(1, 0, 0, 1, 2, 28)"><g clip-path="url(#4822c41a97)"><g clip-path="url(#0f0721b194)"><path fill="#d1512d" d="M 0.417969 0.605469 L 25.785156 0.605469 L 25.785156 64.917969 L 0.417969 64.917969 Z M 0.417969 0.605469 " fill-opacity="1" fill-rule="nonzero"/></g></g></g></g><g fill="#ffffff" fill-opacity="1"><g transform="translate(8.84204, 71.234608)"><g><path d="M 23.078125 -21.375 L 13.828125 0 L 8.953125 0 L -0.28125 -21.375 L 5.0625 -21.375 L 11.578125 -6.109375 L 18.171875 -21.375 Z M 23.078125 -21.375 "/></g></g></g><g fill="#ffffff" fill-opacity="1"><g transform="translate(35.223025, 71.234608)"><g><path d="M 2.53125 -21.375 L 7.484375 -21.375 L 7.484375 0 L 2.53125 0 Z M 2.53125 -21.375 "/></g></g></g><g fill="#ffffff" fill-opacity="1"><g transform="translate(48.841576, 71.234608)"><g><path d="M 9.5625 0.359375 C 7.863281 0.359375 6.226562 0.132812 4.65625 -0.3125 C 3.082031 -0.769531 1.816406 -1.367188 0.859375 -2.109375 L 2.53125 -5.828125 C 3.445312 -5.160156 4.535156 -4.625 5.796875 -4.21875 C 7.054688 -3.8125 8.320312 -3.609375 9.59375 -3.609375 C 10.988281 -3.609375 12.019531 -3.816406 12.6875 -4.234375 C 13.363281 -4.648438 13.703125 -5.203125 13.703125 -5.890625 C 13.703125 -6.398438 13.503906 -6.820312 13.109375 -7.15625 C 12.710938 -7.488281 12.203125 -7.757812 11.578125 -7.96875 C 10.960938 -8.175781 10.125 -8.398438 9.0625 -8.640625 C 7.4375 -9.023438 6.101562 -9.410156 5.0625 -9.796875 C 4.03125 -10.179688 3.140625 -10.800781 2.390625 -11.65625 C 1.648438 -12.507812 1.28125 -13.648438 1.28125 -15.078125 C 1.28125 -16.316406 1.613281 -17.441406 2.28125 -18.453125 C 2.957031 -19.460938 3.972656 -20.257812 5.328125 -20.84375 C 6.679688 -21.4375 8.332031 -21.734375 10.28125 -21.734375 C 11.644531 -21.734375 12.976562 -21.570312 14.28125 -21.25 C 15.59375 -20.925781 16.734375 -20.457031 17.703125 -19.84375 L 16.1875 -16.09375 C 14.207031 -17.207031 12.234375 -17.765625 10.265625 -17.765625 C 8.878906 -17.765625 7.851562 -17.539062 7.1875 -17.09375 C 6.53125 -16.644531 6.203125 -16.054688 6.203125 -15.328125 C 6.203125 -14.597656 6.582031 -14.050781 7.34375 -13.6875 C 8.101562 -13.332031 9.269531 -12.984375 10.84375 -12.640625 C 12.46875 -12.253906 13.796875 -11.867188 14.828125 -11.484375 C 15.867188 -11.097656 16.757812 -10.484375 17.5 -9.640625 C 18.25 -8.804688 18.625 -7.679688 18.625 -6.265625 C 18.625 -5.035156 18.28125 -3.914062 17.59375 -2.90625 C 16.914062 -1.90625 15.894531 -1.109375 14.53125 -0.515625 C 13.164062 0.0664062 11.507812 0.359375 9.5625 0.359375 Z M 9.5625 0.359375 "/></g></g></g><g fill="#ffffff" fill-opacity="1"><g transform="translate(71.925083, 71.234608)"><g><path d="M 2.53125 -21.375 L 7.484375 -21.375 L 7.484375 0 L 2.53125 0 Z M 2.53125 -21.375 "/></g></g></g><g fill="#ffffff" fill-opacity="1"><g transform="translate(85.543634, 71.234608)"><g><path d="M 22.140625 -21.375 L 22.140625 0 L 18.078125 0 L 7.421875 -12.96875 L 7.421875 0 L 2.53125 0 L 2.53125 -21.375 L 6.625 -21.375 L 17.25 -8.390625 L 17.25 -21.375 Z M 22.140625 -21.375 "/></g></g></g><g fill="#ffffff" fill-opacity="1"><g transform="translate(113.817609, 71.234608)"><g><path d="M 23.078125 -21.375 L 13.828125 0 L 8.953125 0 L -0.28125 -21.375 L 5.0625 -21.375 L 11.578125 -6.109375 L 18.171875 -21.375 Z M 23.078125 -21.375 "/></g></g></g></svg>